# xmcd
#
# Track frame offsets: 
#        150
#        9450
#        30305
#        64255
#        78905
#        98100
#        121720
#        143230
#
# Disc length: 2143 seconds
#
# Revision: 1
# Processed by: cddbd v1.5.2PL0 Copyright (c) Steve Scherf et al.
# Submitted via: ExactAudioCopyFreeDBPlugin 1.0
#
DISCID=58085d08
DTITLE=Quincy Jones - I Heard That
DYEAR=1976
DGENRE=Jazz+Funk
TTITLE0=I Heard That!!
TTITLE1=Things Could Be Worse For Me
TTITLE2=What Good Is A Song
TTITLE3=You Have To Do It Yourself
TTITLE4=There's A Train Leavin'
TTITLE5=Midnight Soul Patrol
TTITLE6=Brown Soft Shoe
TTITLE7=Superstition
EXTD=YEAR: 1975
EXTT0=
EXTT1=
EXTT2=
EXTT3=
EXTT4=
EXTT5=
EXTT6=
EXTT7=
PLAYORDER=
